<svg width="101" height="15" xmlns="http://www.w3.org/2000/svg"><!--Generator: Sketch 63.1 (92452) - https://sketch.com--><path d="M7.2 6.5c-.2.3-.4.7-.6 1-.3.5-.6 1-.8 1.5-.2.3-.4.4-.7.4h-.7c-.3 0-.6-.2-.7-.4-.4-.8-.8-1.5-1.2-2.2 0 0 0-.1-.1-.1v.7c0 .7-.1 1.4-.1 2.1 0 .3 0 .7-.1 1-.1.3-.2.5-.6.5H.4c-.2 0-.4-.2-.4-.5 0-.4.1-.7.1-1.1 0-.5.1-1 .1-1.6.1-.6.1-1.2.2-1.8 0-.5.1-1 .1-1.5 0-.3 0-.6.1-.9 0-.3.2-.5.5-.5h1c.3 0 .5.1.6.4.7 1.2 1.3 2.4 2 3.6v.1s0-.1.1-.1l2.1-3.6c.2-.3.4-.4.8-.4h.8c.4 0 .6.2.6.6 0 .7.1 1.5.2 2.3.1.9.1 1.7.2 2.6 0 .6.1 1.2.1 1.8v.2c0 .3-.2.4-.4.4H7.9c-.3 0-.4-.2-.4-.5 0-.4 0-.8-.1-1.3-.1-.9-.1-1.8-.2-2.7M78.3 10c-.2.2-.3.4-.5.5-.5.3-1 .5-1.5.6-.5.1-1.1 0-1.6-.1-.8-.3-1.4-.9-1.7-1.7-.2-.5-.3-1.1-.3-1.6V3.6c0-.4.2-.5.5-.5h1.1c.4 0 .6.2.6.6v3.5c0 .3 0 .6.1.9.2.6.7 1 1.3 1 .9 0 1.5-.5 1.7-1.4.1-.3.1-.5.1-.8V3.6v-.2c0-.2.2-.4.4-.4h1.4c.2 0 .4.2.4.4v6.8c0 .4-.2.7-.6.6h-.8c-.3 0-.5-.2-.6-.5V10M50.9 4c.1-.2.3-.3.4-.5.5-.4 1.1-.6 1.7-.7.5 0 1 0 1.4.2.8.3 1.3.9 1.6 1.6.2.6.3 1.1.3 1.7v4c0 .4-.2.6-.6.6h-1.1c-.4 0-.6-.2-.6-.6v-2-1.6c0-.4 0-.7-.2-1.1-.2-.5-.6-.8-1.1-.8-.9-.1-1.5.5-1.7 1.4-.1.3-.1.5-.1.8v3.3c0 .4-.2.6-.6.6h-1.1c-.4 0-.5-.2-.6-.5v-.1-6.6-.1c0-.4.2-.5.5-.5h.9c.3 0 .5.2.6.5.3.1.3.3.3.4m-10 4.9H44.2c.2 0 .4.2.4.4v1.1c0 .3-.2.4-.5.5h-5.8c-.2 0-.4-.2-.4-.4v-.9c0-.2.1-.4.3-.6 1.1-1.2 2.1-2.5 3.2-3.7l.2-.2h-3.1c-.2 0-.4-.2-.4-.5v-1c0-.3.2-.5.5-.5h5.5c.2 0 .4.2.4.4v1c0 .2-.1.4-.3.5l-3.3 3.9m46.5 0H90.7c.2 0 .4.2.4.5v1.1c0 .3-.2.4-.5.5h-5.8c-.2 0-.4-.2-.4-.4v-.9c0-.2.1-.4.3-.6 1.1-1.3 2.2-2.5 3.3-3.8 0 0 0-.1.1-.1H85c-.2-.1-.4-.2-.4-.5v-1c0-.3.2-.5.5-.5h5.6c.2 0 .3.1.3.3v1.1c0 .2-.1.4-.3.5-1 1.2-2.1 2.5-3.3 3.8.1 0 .1 0 0 0M68.3 5.8v2.1c0 .1 0 .3.1.4.1.4.5.7.9.7h2.2c.4 0 .6.2.6.6v1c0 .3-.2.4-.5.4h-2.9c-.5 0-.9-.1-1.3-.3-.7-.4-1.1-1-1.3-1.9 0-.3-.1-.5-.1-.8V3.7v-.2c0-.2.2-.4.5-.4h1.4c.3 0 .4.2.5.5v.2c-.1.6-.1 1.3-.1 2zM45.5 7V3.6v-.2c.1-.2.2-.3.4-.3h1.3c.3 0 .5.2.5.5V10.5c0 .3-.2.4-.5.4h-1.3c-.3 0-.5-.2-.5-.5v-.3c.1-1 .1-2 .1-3.1m35.9 0V3.7v-.2c0-.3.2-.4.4-.4h1.3c.3 0 .4.2.4.5v7c0 .2-.2.4-.5.4h-1.2c-.3 0-.5-.2-.5-.5v-.2c.1-1.1.1-2.2.1-3.3m1.2-4.6c-.6 0-1.1-.3-1.2-.9-.2-.7.3-1.4 1-1.5.7-.1 1.3.3 1.4.9.2.7-.3 1.3-1 1.5h-.2m-36 0c-.6 0-1.1-.4-1.2-.9-.2-.7.3-1.3 1-1.5.7-.1 1.3.2 1.5.9.2.7-.3 1.4-.9 1.5h-.4M25.3 8c-.4.6-.9.8-1.6.9-.3 0-.6 0-.9-.1-.7-.3-1-.8-1.1-1.5v-.4c0-.3 0-.6.2-.9.3-.7.9-1.1 1.6-1.1.3 0 .6 0 .9.1.6.2 1 .5 1.1 1.1.2.7.2 1.3-.2 1.9m2.5-4.4c0-.3-.2-.5-.5-.5h-1c-.4 0-.6.2-.6.5v.3l-.1-.1c-.3-.2-.5-.5-.9-.6-.7-.3-1.4-.4-2.1-.3-1.3.2-2.2.8-2.8 2-.5 1.1-.5 2.2-.2 3.3.2.8.7 1.5 1.4 2 .6.4 1.4.6 2.1.6.9 0 1.7-.3 2.4-1 0 0 0-.1.1-.1 0 .3 0 .6-.1.9-.1.7-.5 1.2-1.2 1.5-.6.2-1.2.2-1.9.1-.4-.1-.8-.2-1.2-.4-.3-.1-.5-.1-.7.3-.1.3-.3.5-.4.8-.2.3-.1.6.2.7.6.4 1.3.5 2.1.6.2 0 .4 0 .6.1h.9c.4 0 .8-.1 1.2-.2 1.7-.5 2.7-1.9 2.7-3.7.1-2.2 0-4.5 0-6.8m69.8 4.5c-.3.7-.9 1.1-1.7 1.1-.4 0-.8-.1-1.2-.3-.5-.3-.8-.8-.8-1.4v-.4c0-.6.1-1.1.5-1.5.3-.4.8-.6 1.3-.7.3 0 .6 0 .9.1.5.2.9.5 1.1 1 .1.7.1 1.4-.1 2.1m1.9-5h-1c-.3 0-.5.2-.6.5V4c-.1-.1-.1-.2-.2-.2l-.2-.2c-.9-.7-1.8-.8-2.9-.6-1.2.2-2 .9-2.5 2s-.6 2.3-.2 3.5c.2.9.7 1.6 1.5 2.1.7.4 1.4.6 2.2.6.9-.1 1.7-.4 2.4-1.1h.1c0 .2.1.3.1.5.1.3.2.4.5.4h1c.2 0 .4-.1.5-.4v-7c-.3-.4-.4-.5-.7-.5m-83.3 5c-.3.7-.9 1.1-1.7 1.1-.3 0-.6 0-.9-.1-.5-.2-.8-.5-1-1-.3-.7-.3-1.3 0-2 .4-.8.9-1.1 1.7-1.2.4 0 .7 0 1.1.2.6.3.9.8 1 1.4 0 .2 0 .4.1.5-.1.4-.2.7-.3 1.1m2.4-4.5c0-.3-.2-.5-.5-.5H17c-.3 0-.4.2-.5.4 0 .1 0 .3-.1.4l-.4-.4c-.7-.5-1.7-.7-2.7-.5-1.2.2-2.1.8-2.6 1.9-.7 1.3-.7 2.7-.1 4 .3.8.9 1.5 1.7 1.9.6.3 1.2.4 1.9.4s1.3-.3 1.9-.7c.2-.1.4-.3.5-.5 0 .2.1.3.1.5.1.3.2.4.5.4h1c.2 0 .4-.2.5-.4v-.2-5.2c-.1-.5-.1-1-.1-1.5m16 4.5c-.3.7-.9 1.1-1.6 1.1-.4 0-.8-.1-1.2-.3-.5-.3-.7-.8-.8-1.3v-.5c0-.4.1-.8.3-1.2.3-.6.8-.9 1.5-1 .3 0 .6 0 .9.1.5.2.8.5 1 1 .2.7.2 1.4-.1 2.1m2.5-4.5c0-.4-.2-.6-.6-.6h-.9c-.4 0-.6.2-.6.6v.3l-.2-.2c-.1-.1-.1-.1-.2-.1-.9-.7-1.9-.9-3-.7-1.2.2-2.1.9-2.6 2s-.5 2.3-.2 3.5c.2.8.7 1.5 1.4 2 1.2.8 2.4.8 3.6.2.4-.2.7-.4 1-.8 0 .2.1.3.1.4.1.3.2.5.6.5h.9c.4 0 .6-.2.6-.6.1-1.9.1-4.2.1-6.5M62.8 6h-3s-.1 0-.1-.1c.2-.7.7-1.1 1.4-1.3.5-.1 1 0 1.4.3.2.4.3.7.3 1.1.1 0 0 0 0 0m2.2-.3c-.3-1.1-.9-2-1.9-2.5-.7-.3-1.5-.4-2.3-.3-1.4.2-2.4.9-3 2.2-.5 1-.5 2-.3 3.1.2 1 .8 1.8 1.6 2.3.6.4 1.2.5 1.8.6.7.1 1.5 0 2.2-.2.6-.2 1.1-.5 1.6-1 .2-.2.2-.4.1-.6 0-.1-.1-.1-.1-.2l-.5-.5c-.2-.3-.5-.3-.8-.1-.7.5-1.4.7-2.2.6-.9-.1-1.5-.7-1.6-1.5H64.5c.3 0 .5-.2.5-.5.1-.4.1-.9 0-1.4" fill="#0F87FE" fill-rule="nonzero"/></svg>